<?xml version="1.0" encoding="UTF-8" standalone="no"?><svg xmlns="http://www.w3.org/2000/svg" xmlns:xlink="http://www.w3.org/1999/xlink" clip-rule="evenodd" stroke-miterlimit="4.00" viewBox="0 0 512 512"><desc>SVG generated by Keynote</desc><defs></defs><g transform="matrix(1.00, 0.00, -0.00, -1.00, 0.0, 512.0)"><path d="M 0.0 512.0 L 512.0 512.0 L 512.0 0.0 L 0.0 0.0 Z M 0.0 512.0 " fill="#FEFFFF"></path><text xml:space="preserve" font-family="Roboto-Bold" font-weight="bold" font-size="80.0" fill="#000000" transform="matrix(1.00, 0.00, -0.00, -1.00, 78.0, 19.0)">P</text><text xml:space="preserve" font-family="Roboto-Bold" font-weight="bold" font-size="80.0" fill="#000000" transform="matrix(1.00, 0.00, -0.00, -1.00, 129.6, 19.0)">I</text><text xml:space="preserve" font-family="Roboto-Bold" font-weight="bold" font-size="80.0" fill="#000000" transform="matrix(1.00, 0.00, -0.00, -1.00, 152.9, 19.0)">N</text><text xml:space="preserve" font-family="Roboto-Bold" font-weight="bold" font-size="80.0" fill="#000000" transform="matrix(1.00, 0.00, -0.00, -1.00, 209.4, 19.0)">P</text><text xml:space="preserve" font-family="Roboto-Bold" font-weight="bold" font-size="80.0" fill="#000000" transform="matrix(1.00, 0.00, -0.00, -1.00, 261.0, 19.0)">O</text><text xml:space="preserve" font-family="Roboto-Bold" font-weight="bold" font-size="80.0" fill="#000000" transform="matrix(1.00, 0.00, -0.00, -1.00, 316.2, 19.0)">I</text><text xml:space="preserve" font-family="Roboto-Bold" font-weight="bold" font-size="80.0" fill="#000000" transform="matrix(1.00, 0.00, -0.00, -1.00, 339.5, 19.0)">N</text><text xml:space="preserve" font-family="Roboto-Bold" font-weight="bold" font-size="80.0" fill="#000000" transform="matrix(1.00, 0.00, -0.00, -1.00, 394.9, 19.0)">T</text><g><clipPath id="clip-0"><path d="M 238.3 176.7 L 284.5 176.7 L 284.5 225.0 L 238.3 225.0 Z M 238.3 176.7 "></path></clipPath><g clip-path="url(#clip-0)"><path d="M 239.3 224.0 L 283.5 224.0 L 283.5 177.7 L 239.3 177.7 Z M 239.3 224.0 " fill="#000000"></path></g></g><g><clipPath id="clip-1"><path d="M 324.3 176.7 L 370.5 176.7 L 370.5 225.0 L 324.3 225.0 Z M 324.3 176.7 "></path></clipPath><g clip-path="url(#clip-1)"><path d="M 325.3 224.0 L 369.5 224.0 L 369.5 177.7 L 325.3 177.7 Z M 325.3 224.0 " fill="#000000"></path></g></g><g><clipPath id="clip-2"><path d="M 151.4 176.7 L 242.3 176.7 L 242.3 313.2 L 151.4 313.2 Z M 151.4 176.7 "></path></clipPath><g clip-path="url(#clip-2)"><path d="M 152.4 312.2 L 241.3 312.2 L 241.3 177.7 L 152.4 177.7 Z M 152.4 312.2 " fill="#000000"></path></g></g><g><clipPath id="clip-3"><path d="M 281.2 221.7 L 327.4 221.7 L 327.4 312.8 L 281.2 312.8 Z M 281.2 221.7 "></path></clipPath><g clip-path="url(#clip-3)"><path d="M 282.2 311.8 L 326.4 311.8 L 326.4 222.7 L 282.2 222.7 Z M 282.2 311.8 " fill="#000000"></path></g></g><g><clipPath id="clip-4"><path d="M 324.3 264.1 L 370.6 264.1 L 370.6 355.8 L 324.3 355.8 Z M 324.3 264.1 "></path></clipPath><g clip-path="url(#clip-4)"><path d="M 325.3 354.8 L 369.6 354.8 L 369.6 265.1 L 325.3 265.1 Z M 325.3 354.8 " fill="#000000"></path></g></g><g><clipPath id="clip-5"><path d="M 238.3 309.7 L 284.5 309.7 L 284.5 401.4 L 238.3 401.4 Z M 238.3 309.7 "></path></clipPath><g clip-path="url(#clip-5)"><path d="M 239.3 400.4 L 283.5 400.4 L 283.5 310.7 L 239.3 310.7 Z M 239.3 400.4 " fill="#000000"></path></g></g><g><clipPath id="clip-6"><path d="M 281.2 353.2 L 327.4 353.2 L 327.4 401.4 L 281.2 401.4 Z M 281.2 353.2 "></path></clipPath><g clip-path="url(#clip-6)"><path d="M 282.2 400.4 L 326.4 400.4 L 326.4 354.2 L 282.2 354.2 Z M 282.2 400.4 " fill="#000000"></path></g></g><g><clipPath id="clip-7"><path d="M 151.4 311.0 L 196.9 311.0 L 196.9 401.3 L 151.4 401.3 Z M 151.4 311.0 "></path></clipPath><g clip-path="url(#clip-7)"><path d="M 152.4 400.3 L 195.9 400.3 L 195.9 312.0 L 152.4 312.0 Z M 152.4 400.3 " fill="#000000"></path></g></g><g><clipPath id="clip-8"><path d="M 194.6 353.1 L 240.8 353.1 L 240.8 401.4 L 194.6 401.4 Z M 194.6 353.1 "></path></clipPath><g clip-path="url(#clip-8)"><path d="M 195.6 400.4 L 239.8 400.4 L 239.8 354.1 L 195.6 354.1 Z M 195.6 400.4 " fill="#000000"></path></g></g><path d="M 0.0 0.0 L 355.9 0.0 L 355.9 355.6 L 0.0 355.6 Z M 0.0 0.0 " fill="none" stroke="#009688" stroke-width="44.00" transform="matrix(1.00, 0.00, 0.00, -1.00, 83.1, 466.9)"></path></g></svg>